<svg width="400" height="400" viewBox="0 0 400 400" fill="none" xmlns="http://www.w3.org/2000/svg">
<rect x="0.5" y="0.5" width="49" height="49" fill="black" stroke="black"/>
<rect x="0.5" y="200.5" width="49" height="49" fill="black" stroke="black"/>
<rect x="0.5" y="100.5" width="49" height="49" fill="black" stroke="black"/>
<rect x="0.5" y="300.5" width="49" height="49" fill="black" stroke="black"/>
<rect x="399.5" y="99.5" width="49" height="49" transform="rotate(-180 399.5 99.5)" fill="black" stroke="black"/>
<rect x="399.5" y="299.5" width="49" height="49" transform="rotate(-180 399.5 299.5)" fill="black" stroke="black"/>
<rect x="399.5" y="199.5" width="49" height="49" transform="rotate(-180 399.5 199.5)" fill="black" stroke="black"/>
<rect x="399.5" y="399.5" width="49" height="49" transform="rotate(-180 399.5 399.5)" fill="black" stroke="black"/>
<rect x="200.5" y="0.5" width="49" height="49" fill="black" stroke="black"/>
<rect x="200.5" y="200.5" width="49" height="49" fill="black" stroke="black"/>
<rect x="200.5" y="100.5" width="49" height="49" fill="black" stroke="black"/>
<rect x="200.5" y="300.5" width="49" height="49" fill="black" stroke="black"/>
<rect x="199.5" y="99.5" width="49" height="49" transform="rotate(-180 199.5 99.5)" fill="black" stroke="black"/>
<rect x="199.5" y="299.5" width="49" height="49" transform="rotate(-180 199.5 299.5)" fill="black" stroke="black"/>
<rect x="199.5" y="199.5" width="49" height="49" transform="rotate(-180 199.5 199.5)" fill="black" stroke="black"/>
<rect x="199.5" y="399.5" width="49" height="49" transform="rotate(-180 199.5 399.5)" fill="black" stroke="black"/>
<rect x="100.5" y="0.5" width="49" height="49" fill="black" stroke="black"/>
<rect x="100.5" y="200.5" width="49" height="49" fill="black" stroke="black"/>
<rect x="100.5" y="100.5" width="49" height="49" fill="black" stroke="black"/>
<rect x="100.5" y="300.5" width="49" height="49" fill="black" stroke="black"/>
<rect x="299.5" y="99.5" width="49" height="49" transform="rotate(-180 299.5 99.5)" fill="black" stroke="black"/>
<rect x="299.5" y="299.5" width="49" height="49" transform="rotate(-180 299.5 299.5)" fill="black" stroke="black"/>
<rect x="299.5" y="199.5" width="49" height="49" transform="rotate(-180 299.5 199.5)" fill="black" stroke="black"/>
<rect x="299.5" y="399.5" width="49" height="49" transform="rotate(-180 299.5 399.5)" fill="black" stroke="black"/>
<rect x="300.5" y="0.5" width="49" height="49" fill="black" stroke="black"/>
<rect x="300.5" y="200.5" width="49" height="49" fill="black" stroke="black"/>
<rect x="300.5" y="100.5" width="49" height="49" fill="black" stroke="black"/>
<rect x="300.5" y="300.5" width="49" height="49" fill="black" stroke="black"/>
<rect x="99.5" y="99.5" width="49" height="49" transform="rotate(-180 99.5 99.5)" fill="black" stroke="black"/>
<rect x="99.5" y="299.5" width="49" height="49" transform="rotate(-180 99.5 299.5)" fill="black" stroke="black"/>
<rect x="99.5" y="199.5" width="49" height="49" transform="rotate(-180 99.5 199.5)" fill="black" stroke="black"/>
<rect x="99.5" y="399.5" width="49" height="49" transform="rotate(-180 99.5 399.5)" fill="black" stroke="black"/>
<rect x="50.5" y="0.5" width="49" height="49" stroke="black"/>
<rect x="50.5" y="200.5" width="49" height="49" stroke="black"/>
<rect x="50.5" y="100.5" width="49" height="49" stroke="black"/>
<rect x="50.5" y="300.5" width="49" height="49" stroke="black"/>
<rect x="349.5" y="99.5" width="49" height="49" transform="rotate(-180 349.5 99.5)" stroke="black"/>
<rect x="349.5" y="299.5" width="49" height="49" transform="rotate(-180 349.5 299.5)" stroke="black"/>
<rect x="349.5" y="199.5" width="49" height="49" transform="rotate(-180 349.5 199.5)" stroke="black"/>
<rect x="349.5" y="399.5" width="49" height="49" transform="rotate(-180 349.5 399.5)" stroke="black"/>
<rect x="250.5" y="0.5" width="49" height="49" stroke="black"/>
<rect x="250.5" y="200.5" width="49" height="49" stroke="black"/>
<rect x="250.5" y="100.5" width="49" height="49" stroke="black"/>
<rect x="250.5" y="300.5" width="49" height="49" stroke="black"/>
<rect x="149.5" y="99.5" width="49" height="49" transform="rotate(-180 149.5 99.5)" stroke="black"/>
<rect x="149.5" y="299.5" width="49" height="49" transform="rotate(-180 149.5 299.5)" stroke="black"/>
<rect x="149.5" y="199.5" width="49" height="49" transform="rotate(-180 149.5 199.5)" stroke="black"/>
<rect x="149.5" y="399.5" width="49" height="49" transform="rotate(-180 149.5 399.5)" stroke="black"/>
<rect x="150.5" y="0.5" width="49" height="49" stroke="black"/>
<rect x="150.5" y="200.5" width="49" height="49" stroke="black"/>
<rect x="150.5" y="100.5" width="49" height="49" stroke="black"/>
<rect x="150.5" y="300.5" width="49" height="49" stroke="black"/>
<rect x="249.5" y="99.5" width="49" height="49" transform="rotate(-180 249.5 99.5)" stroke="black"/>
<rect x="249.5" y="299.5" width="49" height="49" transform="rotate(-180 249.5 299.5)" stroke="black"/>
<rect x="249.5" y="199.5" width="49" height="49" transform="rotate(-180 249.5 199.5)" stroke="black"/>
<rect x="249.5" y="399.5" width="49" height="49" transform="rotate(-180 249.5 399.5)" stroke="black"/>
<rect x="350.5" y="0.5" width="49" height="49" stroke="black"/>
<rect x="350.5" y="200.5" width="49" height="49" stroke="black"/>
<rect x="350.5" y="100.5" width="49" height="49" stroke="black"/>
<rect x="350.5" y="300.5" width="49" height="49" stroke="black"/>
<rect x="49.5" y="99.5" width="49" height="49" transform="rotate(-180 49.5 99.5)" stroke="black"/>
<rect x="49.5" y="299.5" width="49" height="49" transform="rotate(-180 49.5 299.5)" stroke="black"/>
<rect x="49.5" y="199.5" width="49" height="49" transform="rotate(-180 49.5 199.5)" stroke="black"/>
<rect x="49.5" y="399.5" width="49" height="49" transform="rotate(-180 49.5 399.5)" stroke="black"/>
</svg>
